<svg xmlns="http://www.w3.org/2000/svg" xmlns:xlink="http://www.w3.org/1999/xlink" fill="none" version="1.1" width="459" height="459" viewBox="0 0 459 459"><g><path d="M229.5,0C102.751,0,0,102.751,0,229.5C0,287.736,22.1392,343.794,61.9313,386.315L61.9313,328.165L75.8927,328.165L75.8927,400.014C118.044,437.986,172.767,459,229.5,459C286.241,459,340.97,437.981,383.123,400L383.123,328.165L397.085,328.165L397.085,386.298C436.867,343.779,459,287.728,459,229.5C459,102.751,356.249,0,229.5,0ZM141.183,171.121L111.916,90.0265L103.578,102.764L64.8264,102.764L64.8264,88.6865L96.0003,88.6865L115.554,59.1186L142.164,132.931L157.984,95.7295L214.225,95.7295L214.225,90.8241C207.62,90.9438,202.463,87.9607,197.614,84.1799C197.143,83.8722,196.594,83.7062,196.032,83.7014C194.814,83.6216,193.58,83.6854,192.362,83.6216C191.307,83.6131,190.452,82.7551,190.44,81.6913C190.313,80.6385,191.049,80.0722,191.895,79.4739C193.714,78.1983,195.664,78.2509,197.636,78.304C198.032,78.3147,198.428,78.3254,198.824,78.3254C200.153,78.3413,200.691,77.8628,200.691,76.5068C200.628,66.2813,200.691,56.0558,200.628,45.8382C200.514,44.9635,200.167,44.1363,199.623,43.4453C199.188,42.7913,198.453,42.3367,197.962,41.7065C197.445,40.9791,196.964,40.2257,196.523,39.4493L196.784,39.0186C196.258,39.0186,195.731,39.0234,195.205,39.0283C193.822,39.041,192.439,39.0538,191.064,38.9787C190.475,38.9027,189.956,38.5509,189.664,38.0295C189.332,37.1362,189.728,36.3386,190.914,36.3386C192.559,36.3864,194.141,36.4263,195.724,36.3386C196.119,36.2827,196.483,35.7403,196.91,35.5409C197.454,35.19,198.071,34.9715,198.714,34.9028C200.122,34.9746,200.826,34.6317,200.731,33.0364C200.771,32.3466,201.081,31.7012,201.593,31.2418C203.776,29.2876,206.015,27.3733,208.316,25.5627C208.989,25.0677,209.794,24.7896,210.626,24.7651L224.517,24.7651C224.532,24.5848,224.561,24.4091,224.589,24.24C224.703,23.549,224.799,22.9686,223.884,22.6354C223.654,22.5477,223.488,22.0053,223.488,21.6703L223.488,6.26023C223.488,5.31108,223.963,5,224.801,5L232.15,5C233.17,5,233.59,5.45465,233.59,6.46762L233.59,21.447C233.59,21.7182,233.59,22.1648,233.439,22.2446C232.079,22.9905,232.277,24.0034,232.474,25.0132C232.59,25.6124,232.707,26.2105,232.498,26.7511L232.783,26.9745C233.447,26.448,234.143,25.9615,234.76,25.3792C235.726,24.4579,237.023,23.974,238.352,24.0392L251.506,24.0392C253.515,24.0392,254.029,24.5417,254.029,26.5517L254.029,30.1171C254.17,31.294,253.169,32.287,252.004,32.1271C251.342,32.1271,250.686,32.1253,250.03,32.1236C248.72,32.12,247.413,32.1165,246.064,32.1271C244.039,32.1431,243.003,33.1401,243.003,35.198L243.003,39.6168C243.05,41.8501,244.007,42.9508,246.214,42.8073C252.236,42.292,258.169,44.5322,262.375,48.9091C268.798,55.33,270.657,63.027,268.086,71.8008C267.722,73.0531,266.907,73.1967,265.483,72.7022C262.92,71.8248,260.31,71.0431,257.7,70.3093C257.047,70.2003,256.379,70.2302,255.738,70.397C254.689,70.4764,253.915,71.4166,254.029,72.4709C254.029,73.1674,254.023,73.864,254.017,74.5606C254.005,75.9538,253.993,77.347,254.029,78.7402C254.057,79.1874,254.262,79.6045,254.599,79.8967C260.927,84.0603,264.281,90.2817,266.464,97.2609C268.923,105.116,269.593,113.428,268.426,121.58L299.449,121.58L307.834,134.255L337.102,53.1604L363.205,114.537L407.502,114.537L407.502,128.623L354.022,128.623L338.201,91.4304L311.584,165.234L292.03,135.666L260.286,135.666L256.394,146.402C255.73,148.245,256.094,149.162,257.826,150.127C258.122,150.285,258.425,150.426,258.736,150.55C260.919,151.412,260.919,151.412,260.919,153.852L260.919,196.517C260.919,198.774,260.666,199.061,258.459,198.774C249.608,197.618,240.724,196.86,231.802,197.394C226.826,197.698,221.859,198.32,216.891,198.782C214.629,198.958,214.32,198.671,214.32,196.389L214.32,109.744L167.287,109.744L141.183,171.121ZM210.452,76.3234C210.452,77.8628,210.879,78.1978,212.406,78.2536L212.446,78.2536C213.767,78.2935,214.32,77.7751,214.234,76.4111L214.234,43.9319C214.257,43.4367,214.121,42.947,213.846,42.5361C213.146,41.8263,212.404,41.1604,211.623,40.542C210.69,40.5899,210.452,41.4513,210.452,42.56L210.452,76.3234ZM235.955,61.8146L235.955,63.2344L235.947,63.2184L235.947,65.2125C235.953,68.1331,238.037,70.628,240.891,71.1309C241.82,71.2698,242.76,71.3205,243.699,71.2824C246.546,71.3064,246.8,71.0591,246.8,68.2594C246.8,67.055,247.068,66.3451,248.382,65.8666C251.815,64.6334,253.478,60.7107,251.989,57.3559C250.947,54.9369,248.568,53.3839,245.953,53.4157C243.325,53.427,240.988,55.1081,240.123,57.6112C239.831,58.3849,239.617,59.0788,238.541,59.0788C236.319,59.1346,235.955,59.5813,235.955,61.8146ZM242.765,120.958C247.836,123.327,252.582,120.799,253.507,115.215L253.547,115.215C254.551,109.169,251.498,102.047,246.293,98.8482C244.731,98.0343,243.104,97.3539,241.429,96.8143C241.389,96.9419,241.342,97.0616,241.294,97.1812L240.448,97.1812C237.568,97.3726,236.224,98.8004,236.224,101.648L236.224,113.333C236.196,113.942,236.321,114.548,236.587,115.096C238.002,117.643,240.158,119.689,242.765,120.958ZM233.305,168.217L224.2,168.217L224.224,174.447L233.305,174.447L233.305,182.942L239.071,182.942L239.071,174.439L248.152,174.439L248.152,168.209L239.071,168.209L239.071,159.699L233.305,159.699L233.305,168.217ZM54.9308,180.301C54.9308,176.412,51.8037,173.258,47.9462,173.258C44.0886,173.258,40.9614,176.412,40.9614,180.301L40.9614,285.915L54.9308,285.915L54.9308,180.301ZM115.262,257.751L89.8463,257.751C78.2693,257.751,68.8843,248.287,68.8843,236.614C68.8843,224.94,78.2693,215.477,89.8463,215.477L115.262,215.477C126.838,215.477,136.224,224.94,136.224,236.614C136.224,248.287,126.838,257.751,115.262,257.751ZM151.98,285.915L417.611,285.915C414.028,253.867,387.168,229.631,355.184,229.587L187.6,229.587C177.848,229.593,168.23,231.881,159.503,236.271L149.718,241.2C148.558,250.041,144.097,258.103,137.244,263.741C144.843,268.904,150.133,276.864,151.98,285.915ZM68.8923,264.985C68.9714,264.921,69.0347,264.857,69.1138,264.802C69.0347,264.746,68.9714,264.682,68.8923,264.618L68.8923,264.985ZM89.8858,271.837L117.817,271.837C126.657,271.87,134.521,277.507,137.457,285.915L70.2211,285.915C73.1627,277.5,81.0375,271.862,89.8858,271.837ZM432,314.086L432,300L27,300L27,314.086L432,314.086Z" fill-rule="evenodd" fill="#DE335E" fill-opacity="1"/></g></svg>